<svg width="240" height="240" viewBox="0 0 240 240" fill="none" xmlns="http://www.w3.org/2000/svg">
<path d="M186.373 78.2227L138.651 115.573L129.099 123.039L123.254 127.62C122.728 128.037 122.107 128.318 121.447 128.437C120.786 128.557 120.106 128.512 119.467 128.306L100.174 122.129L91.5037 119.358L87.196 117.985L67.6819 132.616L62.9632 136.157L61.4521 137.281C61.181 137.482 60.8882 137.649 60.5804 137.779C59.6382 138.175 58.6472 137.586 58.0914 136.728L57.0522 135.124C56.4116 134.135 56.4091 132.863 57.0459 131.872L58.6917 129.309C58.8846 129.009 59.1296 128.746 59.4151 128.531L83.9552 110.113C84.4818 109.718 85.0954 109.454 85.7448 109.344C86.3941 109.234 87.0604 109.281 87.6879 109.481L97.8429 112.746L119.906 119.8L126.654 114.535L181.324 71.7481C181.748 71.4069 182.236 71.1536 182.759 71.0027C183.282 70.8518 183.829 70.8064 184.37 70.8692C184.911 70.932 185.434 71.1017 185.908 71.3684C186.383 71.6351 186.8 71.9935 187.134 72.4227C187.469 72.852 187.715 73.3435 187.858 73.8688C188.001 74.394 188.038 74.9424 187.967 75.4821C187.897 76.0219 187.719 76.5421 187.445 77.0126C187.171 77.4831 186.807 77.8944 186.373 78.2227Z" fill="black" fill-opacity="0.9" stroke="white" stroke-width="1.5"/>
<path d="M186.921 113.409C186.192 112.595 185.171 112.104 184.08 112.042C182.989 111.981 181.918 112.354 181.103 113.081C176.406 117.084 171.969 121.383 167.821 125.952C163.544 125.869 151.959 124.99 138.651 123.814C134.752 123.483 130.72 123.127 126.657 122.77C117.49 121.946 108.243 121.069 100.559 120.299C99.5996 120.185 98.6322 120.429 97.8429 120.986C97.5837 121.139 97.3517 121.334 97.1562 121.563L91.5037 127.603L79.044 140.857L77.5613 142.448L62.9632 144.397L60.4258 144.73C59.5149 144.85 58.7091 145.38 58.239 146.169L57.42 147.545C56.8536 148.496 56.8569 149.681 57.4286 150.629L58.6993 152.736C58.8762 153.029 59.1924 153.221 59.5323 153.178V153.178L80.1155 150.434C81.049 150.304 81.9099 149.859 82.5557 149.173L82.6389 149.089L90.3513 140.857L100.174 130.374L101.766 128.672C112.413 129.715 121.441 130.573 129.09 131.286C146.104 132.852 156.285 133.619 162.461 133.921C171.352 134.332 172.01 133.729 172.86 132.971C173.325 132.57 173.684 132.061 173.903 131.488C175.947 129.199 178.109 127.019 180.38 124.956C182.434 123.041 184.501 121.14 186.582 119.254C186.99 118.894 187.322 118.456 187.56 117.967C187.798 117.477 187.937 116.946 187.968 116.402C188 115.859 187.924 115.315 187.744 114.801C187.564 114.287 187.285 113.814 186.921 113.409Z" fill="black" fill-opacity="0.9" stroke="white" stroke-width="1.5"/>
<path d="M187.059 148.643L151.384 166.479C150.816 166.774 150.185 166.926 149.545 166.921H61.3244C59.8785 166.921 58.5451 166.141 57.8369 164.88L57.6758 164.593C56.9531 163.307 57.005 161.725 57.8107 160.488V160.488C58.5422 159.366 59.7916 158.688 61.1317 158.688H148.582L162.47 151.743L180.39 142.772L183.381 141.289C184.356 140.801 185.485 140.721 186.52 141.066C187.554 141.41 188.409 142.152 188.897 143.127C189.385 144.102 189.465 145.231 189.121 146.265C188.776 147.3 188.034 148.155 187.059 148.643Z" fill="black" fill-opacity="0.9" stroke="white" stroke-width="1.5"/>
</svg>
