<svg width="240" height="240" viewBox="0 0 240 240" fill="none" xmlns="http://www.w3.org/2000/svg">
<path d="M88.8037 49.6301C88.8037 52.2628 89.8496 54.7878 91.7112 56.6495C93.5729 58.5111 96.0979 59.557 98.7306 59.557C101.363 59.557 103.888 58.5111 105.75 56.6495C107.612 54.7878 108.658 52.2628 108.658 49.6301C108.658 46.9973 107.612 44.4723 105.75 42.6107C103.888 40.749 101.363 39.7031 98.7306 39.7031C96.0979 39.7031 93.5729 40.749 91.7112 42.6107C89.8496 44.4723 88.8037 46.9973 88.8037 49.6301Z" fill="white"/>
<path d="M88.8037 49.6301C88.8037 52.2628 89.8496 54.7878 91.7112 56.6495C93.5729 58.5111 96.0979 59.557 98.7306 59.557C101.363 59.557 103.888 58.5111 105.75 56.6495C107.612 54.7878 108.658 52.2628 108.658 49.6301C108.658 46.9973 107.612 44.4723 105.75 42.6107C103.888 40.749 101.363 39.7031 98.7306 39.7031C96.0979 39.7031 93.5729 40.749 91.7112 42.6107C89.8496 44.4723 88.8037 46.9973 88.8037 49.6301Z" stroke="#484848" stroke-width="1.5" stroke-linecap="round" stroke-linejoin="round"/>
<path d="M209.159 67.2339C215.619 72.3535 220.923 78.7816 224.723 86.0962C228.523 93.4108 230.733 101.446 231.208 109.675C231.683 117.905 230.412 126.141 227.478 133.844C224.545 141.547 220.015 148.543 214.187 154.371C204.145 164.471 190.727 170.507 176.508 171.322L151.052 145.856L140.02 134.826L114.563 109.367C115.04 101.173 117.249 93.173 121.044 85.8948C124.839 78.6166 130.134 72.2256 136.579 67.1436C146.932 59.0115 159.72 54.5987 172.885 54.615C186.05 54.6314 198.826 59.0761 209.159 67.2339Z" fill="black" fill-opacity="0.9"/>
<path d="M96.2088 193.376L92.5023 189.669C90.1077 187.259 88.7637 184 88.7637 180.602C88.7637 177.205 90.1077 173.945 92.5023 171.535L118.489 145.547C118.918 145.139 119.276 144.662 119.548 144.135L119.636 144.18L139.483 135.356L140.013 134.826L151.045 145.856L150.515 146.385L141.69 166.239L141.733 166.284C141.231 166.572 140.771 166.929 140.367 167.344L114.342 193.376C111.932 195.77 108.673 197.114 105.276 197.114C101.878 197.114 98.6188 195.77 96.2088 193.376Z" fill="white"/>
<path d="M151.052 145.856L176.508 171.322C166.735 171.941 156.963 170.09 148.093 165.938C147.084 165.48 145.98 165.274 144.873 165.336C143.767 165.397 142.692 165.725 141.74 166.292L141.697 166.247L150.522 146.393L151.052 145.856Z" fill="white"/>
<path d="M140.02 134.826L139.49 135.356L119.636 144.181L119.548 144.135C120.132 143.199 120.474 142.133 120.544 141.031C120.613 139.93 120.407 138.829 119.945 137.827C115.794 128.942 113.943 119.155 114.563 109.367L140.02 134.826Z" fill="white"/>
<path d="M209.157 67.2315C215.617 72.351 220.922 78.7791 224.723 86.0938C228.523 93.4085 230.733 101.444 231.208 109.674C231.683 117.903 230.412 126.14 227.479 133.843C224.545 141.547 220.015 148.542 214.187 154.371C204.144 164.47 190.727 170.506 176.508 171.322L151.049 145.856L140.02 134.826L114.563 109.367C115.04 101.173 117.248 93.1728 121.043 85.8945C124.838 78.6162 130.133 72.2253 136.579 67.1436C146.932 59.0118 159.719 54.5988 172.883 54.6148C186.048 54.6307 198.824 59.0746 209.157 67.2315Z" stroke="#484848" stroke-width="1.5" stroke-linecap="round" stroke-linejoin="round"/>
<path d="M151.05 145.856L140.02 134.826L114.564 109.367C113.944 119.153 115.795 128.937 119.945 137.82C120.407 138.822 120.613 139.923 120.544 141.024C120.475 142.126 120.133 143.192 119.548 144.128C119.276 144.654 118.918 145.131 118.489 145.54L92.5025 171.533C90.1077 173.943 88.7637 177.203 88.7637 180.601C88.7637 183.999 90.1077 187.259 92.5025 189.669L96.2091 193.376C98.619 195.77 101.878 197.114 105.276 197.114C108.673 197.114 111.933 195.77 114.343 193.376L140.374 167.342C140.779 166.928 141.238 166.572 141.74 166.285C142.692 165.718 143.767 165.39 144.874 165.328C145.98 165.267 147.085 165.473 148.094 165.93C156.962 170.085 166.734 171.939 176.508 171.322L151.05 145.856Z" stroke="#484848" stroke-width="1.5" stroke-linecap="round" stroke-linejoin="round"/>
<path d="M150.565 146.431L141.741 166.285" stroke="#484848" stroke-width="1.5" stroke-linecap="round" stroke-linejoin="round"/>
<path d="M119.681 144.223L139.535 135.399" stroke="#484848" stroke-width="1.5" stroke-linecap="round" stroke-linejoin="round"/>
<path d="M21.7413 70.0732C18.2807 72.8145 15.4393 76.2569 13.4036 80.1743C11.368 84.0917 10.1841 88.3955 9.92987 92.803C9.67563 97.2104 10.3567 101.622 11.9284 105.747C13.5001 109.873 15.9269 113.619 19.0493 116.74C24.4284 122.147 31.6141 125.378 39.2286 125.814L52.8621 112.181L58.7712 106.274L72.4047 92.638C72.1494 88.2495 70.9664 83.965 68.9337 80.0672C66.9011 76.1694 64.065 72.747 60.6126 70.0256C55.0681 65.67 48.2195 63.3063 41.1687 63.315C34.118 63.3236 27.2751 65.704 21.7413 70.0732Z" fill="black" fill-opacity="0.9"/>
<path d="M82.2212 137.63L84.2052 135.644C85.4871 134.353 86.2065 132.607 86.2065 130.788C86.2065 128.969 85.4871 127.224 84.2052 125.933L70.289 112.014C70.0592 111.796 69.8673 111.54 69.7211 111.259L69.6736 111.283L59.041 106.557L58.7582 106.274L52.8491 112.181L53.1342 112.463L57.872 123.089L57.8482 123.115C58.1171 123.269 58.3634 123.459 58.58 123.68L72.5224 137.623C73.8118 138.902 75.5541 139.621 77.3703 139.622C79.1866 139.623 80.93 138.907 82.2212 137.63Z" fill="white"/>
<path d="M52.861 112.18L39.2275 125.814C44.4618 126.146 49.6955 125.155 54.4458 122.932C54.9863 122.687 55.5779 122.576 56.1704 122.609C56.7628 122.642 57.3385 122.818 57.8483 123.122L57.872 123.096L53.1461 112.463L52.861 112.18Z" fill="white"/>
<path d="M58.7705 106.274L59.0533 106.557L69.6859 111.282L69.7334 111.259C69.4208 110.757 69.2378 110.186 69.2009 109.596C69.164 109.006 69.2743 108.417 69.5219 107.88C71.7437 103.121 72.7347 97.8798 72.404 92.6379L58.7705 106.274Z" fill="white"/>
<path d="M21.7399 70.0707C18.2793 72.8122 15.4379 76.2548 13.4022 80.1724C11.3665 84.0901 10.1827 88.394 9.92841 92.8017C9.67417 97.2093 10.3553 101.621 11.927 105.747C13.4987 109.872 15.9255 113.619 19.0479 116.74C24.4271 122.147 31.6128 125.378 39.2273 125.814L52.8608 112.181L58.7699 106.274L72.4034 92.6379C72.1481 88.2494 70.965 83.9649 68.9324 80.0671C66.8997 76.1693 64.0637 72.7468 60.6113 70.0255C55.0672 65.6692 48.2187 63.3048 41.1678 63.313C34.1169 63.3212 27.2739 65.7014 21.7399 70.0707Z" stroke="#484848" stroke-width="1.5" stroke-linecap="round" stroke-linejoin="round"/>
<path d="M52.861 112.181L58.7701 106.274L72.4036 92.6379C72.7348 97.8806 71.7437 103.122 69.5215 107.882C69.2739 108.419 69.1636 109.009 69.2005 109.598C69.2374 110.188 69.4204 110.76 69.733 111.261C69.8792 111.543 70.0711 111.798 70.3009 112.017L84.2171 125.94C85.499 127.231 86.2184 128.976 86.2184 130.795C86.2184 132.615 85.499 134.36 84.2171 135.651L82.2331 137.637C80.9423 138.919 79.197 139.638 77.3778 139.638C75.5586 139.638 73.8132 138.919 72.5224 137.637L58.5801 123.688C58.3635 123.465 58.1172 123.274 57.8483 123.12C57.3381 122.817 56.7624 122.642 56.17 122.609C55.5777 122.576 54.9862 122.687 54.4458 122.932C49.6955 125.155 44.4618 126.146 39.2275 125.814L52.861 112.181Z" stroke="#484848" stroke-width="1.5" stroke-linecap="round" stroke-linejoin="round"/>
<path d="M53.1221 112.487L57.8479 123.12" stroke="#484848" stroke-width="1.5" stroke-linecap="round" stroke-linejoin="round"/>
<path d="M69.6624 111.306L59.0298 106.58" stroke="#484848" stroke-width="1.5" stroke-linecap="round" stroke-linejoin="round"/>
</svg>
