<svg width="240" height="240" viewBox="0 0 240 240" fill="none" xmlns="http://www.w3.org/2000/svg">
<path d="M173.549 71.779C171.192 73.3077 168.702 74.6184 166.107 75.6947C133.741 89.1381 125.404 60.8827 93.038 74.3261C87.1116 76.8663 81.6952 80.4608 77.0522 84.9349" stroke="#484848" stroke-width="1.5" stroke-linecap="round" stroke-linejoin="round"/>
<path d="M180.769 89.174C178.414 90.7011 175.924 92.0101 173.332 93.0849C140.966 106.528 132.626 78.2729 100.26 91.7258C94.3341 94.2663 88.9185 97.8617 84.2769 102.337" stroke="#484848" stroke-width="1.5" stroke-linecap="round" stroke-linejoin="round"/>
<path d="M187.992 106.564C185.637 108.091 183.148 109.401 180.555 110.477C148.189 123.921 139.852 95.6652 107.484 109.109C101.558 111.649 96.1426 115.243 91.5005 119.717" stroke="#484848" stroke-width="1.5" stroke-linecap="round" stroke-linejoin="round"/>
<path d="M87.4189 60.7996L114.71 126.498" stroke="#484848" stroke-width="1.5" stroke-linecap="round" stroke-linejoin="round"/>
<path d="M106.415 57.4424L132.903 121.207" stroke="#484848" stroke-width="1.5" stroke-linecap="round" stroke-linejoin="round"/>
<path d="M129.423 63.7437L155.911 127.511" stroke="#484848" stroke-width="1.5" stroke-linecap="round" stroke-linejoin="round"/>
<path d="M150.829 66.1814L177.314 129.948" stroke="#484848" stroke-width="1.5" stroke-linecap="round" stroke-linejoin="round"/>
<path d="M169.454 61.9305C169.266 61.4779 168.984 61.0701 168.628 60.7335C168.271 60.3969 167.848 60.1391 167.386 59.9768C166.923 59.8146 166.431 59.7515 165.943 59.7917C165.454 59.8319 164.98 59.9745 164.55 60.2103C163.233 60.9359 161.877 61.5894 160.489 62.1681C128.123 75.6139 119.784 47.3561 87.4179 60.7995C81.4919 63.3406 76.0758 66.935 71.4321 71.4083L98.7229 137.107C103.366 132.632 108.782 129.037 114.709 126.496C147.074 113.053 155.412 141.308 187.78 127.864C189.425 127.176 191.024 126.382 192.568 125.488C193.303 125.067 193.859 124.391 194.132 123.588C194.404 122.785 194.374 121.911 194.048 121.129L169.454 61.9305Z" fill="white" stroke="#484848" stroke-width="1.5" stroke-linecap="round" stroke-linejoin="round"/>
<path d="M87.419 60.7996L93.0383 74.3261C87.1064 76.8598 81.6904 80.4613 77.0597 84.9516L71.4404 71.425C76.0716 66.9353 81.4875 63.3338 87.419 60.7996Z" fill="black" fill-opacity="0.9" stroke="#484848" stroke-width="1.5" stroke-linecap="round" stroke-linejoin="round"/>
<path d="M129.267 63.356L134.886 76.8825C127.44 74.4471 120.511 71.0732 111.91 70.6574L106.286 57.1309C114.887 57.5467 121.818 60.9206 129.267 63.356Z" fill="black" fill-opacity="0.9" stroke="#484848" stroke-width="1.5" stroke-linecap="round" stroke-linejoin="round"/>
<path d="M164.543 60.2057C164.972 59.9684 165.448 59.8245 165.937 59.7834C166.426 59.7424 166.918 59.8051 167.382 59.9675C167.845 60.1299 168.269 60.3883 168.626 60.7257C168.982 61.0632 169.264 61.4722 169.451 61.9259L173.548 71.7887C171.191 73.3136 168.7 74.6211 166.106 75.6948C162.871 77.0681 159.497 78.0893 156.044 78.7408L150.427 65.2143C153.88 64.5621 157.254 63.5409 160.489 62.1682C161.876 61.5898 163.229 60.9346 164.543 60.2057Z" fill="black" fill-opacity="0.9" stroke="#484848" stroke-width="1.5" stroke-linecap="round" stroke-linejoin="round"/>
<path d="M111.906 70.6576L119.129 88.0499C112.641 87.8178 106.187 89.0752 100.261 91.7256L93.0381 74.3357C98.9638 71.6845 105.418 70.4263 111.906 70.6576Z" fill="black" fill-opacity="0.9" stroke="#484848" stroke-width="1.5" stroke-linecap="round" stroke-linejoin="round"/>
<path d="M156.044 78.7406L163.269 96.1329C156.176 97.4207 148.866 96.7782 142.106 94.2725L134.881 76.8826C141.641 79.3871 148.951 80.0288 156.044 78.7406Z" fill="black" fill-opacity="0.9" stroke="#484848" stroke-width="1.5" stroke-linecap="round" stroke-linejoin="round"/>
<path d="M100.26 91.7256L107.483 109.118C101.553 111.652 96.1374 115.254 91.5072 119.743L84.2817 102.351C88.9125 97.8608 94.3285 94.2592 100.26 91.7256Z" fill="black" fill-opacity="0.9" stroke="#484848" stroke-width="1.5" stroke-linecap="round" stroke-linejoin="round"/>
<path d="M142.097 94.2728L149.32 111.665C141.874 109.23 134.943 105.856 126.342 105.44L119.119 88.05C127.73 88.4658 134.658 91.8398 142.097 94.2728Z" fill="black" fill-opacity="0.9" stroke="#484848" stroke-width="1.5" stroke-linecap="round" stroke-linejoin="round"/>
<path d="M180.771 89.1785L187.997 106.571C185.639 108.095 183.149 109.403 180.555 110.477C177.319 111.849 173.946 112.87 170.493 113.523L163.27 96.133C166.723 95.4788 170.096 94.4569 173.332 93.0846C175.925 92.0118 178.415 90.7043 180.771 89.1785Z" fill="black" fill-opacity="0.9" stroke="#484848" stroke-width="1.5" stroke-linecap="round" stroke-linejoin="round"/>
<path d="M126.351 105.44L133.577 122.83C127.09 122.597 120.636 123.852 114.709 126.498L107.483 109.108C113.41 106.461 119.864 105.206 126.351 105.44Z" fill="black" fill-opacity="0.9" stroke="#484848" stroke-width="1.5" stroke-linecap="round" stroke-linejoin="round"/>
<path d="M170.493 113.523L177.716 130.913C170.623 132.201 163.314 131.559 156.553 129.055L149.33 111.665C156.09 114.17 163.4 114.812 170.493 113.523Z" fill="black" fill-opacity="0.9" stroke="#484848" stroke-width="1.5" stroke-linecap="round" stroke-linejoin="round"/>
<path d="M123.403 196.524C123.936 197.805 123.939 199.246 123.41 200.529C122.881 201.812 121.865 202.832 120.584 203.366C119.302 203.899 117.862 203.902 116.579 203.373C115.296 202.844 114.275 201.828 113.742 200.546L59.9635 71.0711C59.4313 69.7894 59.4301 68.3487 59.9601 67.0661C60.4902 65.7835 61.508 64.7639 62.7897 64.2318C64.0715 63.6996 65.5121 63.6984 66.7947 64.2284C68.0773 64.7585 69.0969 65.7763 69.629 67.058L123.403 196.524Z" fill="white" stroke="#484848" stroke-width="1.5" stroke-linecap="round" stroke-linejoin="round"/>
</svg>
