<svg width="25" height="24" viewBox="0 0 25 24" fill="none"
    xmlns="http://www.w3.org/2000/svg">
    <path d="M21.5 18.75H20.75V3.75C20.75 3.55109 20.671 3.36032 20.5303 3.21967C20.3897 3.07902 20.1989 3 20 3H14.75C14.5511 3 14.3603 3.07902 14.2197 3.21967C14.079 3.36032 14 3.55109 14 3.75V7.5H9.5C9.30109 7.5 9.11032 7.57902 8.96967 7.71967C8.82902 7.86032 8.75 8.05109 8.75 8.25V12H5C4.80109 12 4.61032 12.079 4.46967 12.2197C4.32902 12.3603 4.25 12.5511 4.25 12.75V18.75H3.5C3.30109 18.75 3.11032 18.829 2.96967 18.9697C2.82902 19.1103 2.75 19.3011 2.75 19.5C2.75 19.6989 2.82902 19.8897 2.96967 20.0303C3.11032 20.171 3.30109 20.25 3.5 20.25H21.5C21.6989 20.25 21.8897 20.171 22.0303 20.0303C22.171 19.8897 22.25 19.6989 22.25 19.5C22.25 19.3011 22.171 19.1103 22.0303 18.9697C21.8897 18.829 21.6989 18.75 21.5 18.75ZM15.5 4.5H19.25V18.75H15.5V4.5ZM10.25 9H14V18.75H10.25V9ZM5.75 13.5H8.75V18.75H5.75V13.5Z" fill="black" fill-opacity="0.3"/>
</svg>
