<svg width="24" height="24" viewBox="0 0 24 24" fill="none"
    xmlns="http://www.w3.org/2000/svg">
    <path d="M5.44486 8.37366C5.02027 9.59699 4.87579 10.9001 5.02209 12.1867C5.16838 13.4733 5.60172 14.7107 6.29011 15.8075L2.0677 20.0299C1.88804 20.2096 1.78711 20.4533 1.78711 20.7074C1.78711 20.9615 1.88804 21.2052 2.0677 21.385L3.42278 22.74C3.60249 22.9197 3.84621 23.0206 4.10032 23.0206C4.35444 23.0206 4.59815 22.9197 4.77786 22.74L9.00028 18.5167C10.3064 19.3381 11.809 19.7941 13.3513 19.8372C14.8937 19.8803 16.4194 19.5088 17.7693 18.7615C19.1192 18.0143 20.244 16.9185 21.0263 15.5886C21.8086 14.2587 22.2198 12.7432 22.2171 11.2003C22.2143 9.65732 21.7977 8.14334 21.0107 6.81619C20.2237 5.48904 19.0951 4.39732 17.7425 3.65484C16.3899 2.91235 14.8629 2.5463 13.3207 2.59485C11.7785 2.64339 10.2776 3.10475 8.9744 3.93083" stroke="#aaa9a9" stroke-width="1.5" stroke-linecap="round" stroke-linejoin="round" fill-opacity="0.3"/>
    <path d="M5.12988 9.539L15.269 19.6782" stroke="#aaa9a9" stroke-width="1.5" stroke-linecap="round" stroke-linejoin="round" fill-opacity="0.3"/>
    <path d="M1.78711 3.85417C1.78711 4.61667 2.09001 5.34794 2.62918 5.8871C3.16834 6.42627 3.89961 6.72917 4.66211 6.72917C5.42461 6.72917 6.15587 6.42627 6.69504 5.8871C7.23421 5.34794 7.53711 4.61667 7.53711 3.85417C7.53711 3.47662 7.46275 3.10277 7.31826 2.75396C7.17378 2.40515 6.96201 2.08821 6.69504 1.82124C6.42807 1.55427 6.11114 1.3425 5.76232 1.19802C5.41351 1.05354 5.03966 0.979172 4.66211 0.979172C4.28456 0.979172 3.91071 1.05354 3.56189 1.19802C3.21308 1.3425 2.89615 1.55427 2.62918 1.82124C2.36221 2.08821 2.15044 2.40515 2.00596 2.75396C1.86147 3.10277 1.78711 3.47662 1.78711 3.85417Z" stroke="#aaa9a9" stroke-width="1.5" stroke-linecap="round" stroke-linejoin="round" fill-opacity="0.3"/>
</svg>
