<svg width="24" height="24" viewBox="0 0 24 24" fill="none" xmlns="http://www.w3.org/2000/svg">
<g id="RocketLaunch">
<path id="Vector" d="M9.72843 17.4319C9.69186 17.5772 8.7778 21 3.74999 21C3.55108 21 3.36031 20.921 3.21966 20.7803C3.07901 20.6397 2.99999 20.4489 2.99999 20.25C2.99999 15.2222 6.4228 14.3081 6.56812 14.2715C6.76118 14.2233 6.96551 14.2537 7.13614 14.3562C7.30677 14.4586 7.42972 14.6246 7.47796 14.8176C7.5262 15.0107 7.49576 15.215 7.39335 15.3857C7.29093 15.5563 7.12493 15.6792 6.93187 15.7275C6.84749 15.7509 4.82999 16.3406 4.53562 19.4644C7.65937 19.17 8.24999 17.1562 8.27437 17.0625C8.32409 16.8697 8.44838 16.7045 8.61989 16.6033C8.7914 16.5021 8.99608 16.4732 9.1889 16.523C9.38172 16.5727 9.54689 16.697 9.64807 16.8685C9.74925 17.04 9.77816 17.2447 9.72843 17.4375V17.4319ZM18.4472 11.1131L18 11.5603V17.0287C18.0011 17.2265 17.9629 17.4225 17.8876 17.6053C17.8122 17.7881 17.7013 17.9542 17.5612 18.0937L14.3437 21.3094C14.205 21.4491 14.0399 21.56 13.8581 21.6356C13.6763 21.7112 13.4813 21.7501 13.2844 21.75C13.1218 21.7499 12.9604 21.7237 12.8062 21.6722C12.5416 21.5846 12.3067 21.4248 12.1281 21.2108C11.9495 20.9967 11.8343 20.737 11.7956 20.4609L11.2922 16.8525L7.14749 12.7078L3.54093 12.2044C3.2645 12.1656 3.00437 12.0505 2.78981 11.8719C2.57524 11.6934 2.41476 11.4585 2.3264 11.1937C2.23804 10.9289 2.22532 10.6447 2.28966 10.3731C2.35401 10.1015 2.49286 9.85324 2.69062 9.65623L5.90624 6.43873C6.04581 6.29866 6.21185 6.18773 6.39468 6.11241C6.57751 6.03708 6.7735 5.99887 6.97124 5.99998H12.4397L12.8869 5.55279C15.3881 3.05248 18.4022 2.94467 19.5816 3.01498C19.9472 3.03721 20.2922 3.1925 20.5512 3.45156C20.8103 3.71062 20.9656 4.05554 20.9878 4.42123C21.0562 5.5978 20.9484 8.61186 18.4481 11.1131H18.4472ZM3.74999 10.7194L7.2328 11.205L10.9397 7.49998H6.97124L3.74999 10.7194ZM8.56124 12L12 15.4387L17.3859 10.0528C18.1118 9.33186 18.6749 8.4639 19.0374 7.50726C19.4 6.55062 19.5535 5.52746 19.4878 4.50655C18.4674 4.44327 17.4453 4.59845 16.4897 4.96172C15.534 5.32499 14.6669 5.88799 13.9462 6.61311L8.56124 12ZM16.5 13.0603L12.7941 16.7662L13.2816 20.25L16.5 17.0287V13.0603Z" fill="#1D1D1D"/>
</g>
</svg>
