<svg width="24" height="24" viewBox="0 0 24 24" fill="none" xmlns="http://www.w3.org/2000/svg">
<path d="M15.8008 14.7463L15.7734 14.7791L15.8036 14.8094L20.4977 19.5025C20.563 19.5679 20.6148 19.6454 20.6502 19.7308C20.6856 19.8161 20.7038 19.9076 20.7038 20C20.7038 20.0924 20.6856 20.1839 20.6502 20.2692C20.6148 20.3546 20.563 20.4322 20.4977 20.4975C20.4324 20.5628 20.3548 20.6146 20.2694 20.65C20.1841 20.6853 20.0926 20.7035 20.0002 20.7035C19.9078 20.7035 19.8163 20.6853 19.731 20.65C19.6456 20.6146 19.5681 20.5628 19.5027 20.4975L14.8096 15.8034L14.7794 15.7732L14.7465 15.8005C13.1223 17.1534 11.0392 17.8279 8.93035 17.684C6.82152 17.54 4.84938 16.5885 3.42418 15.0275C1.99898 13.4665 1.23046 11.4162 1.27849 9.30298C1.32652 7.18978 2.18739 5.17646 3.68203 3.68182C5.17667 2.18718 7.19 1.3263 9.30319 1.27828C11.4164 1.23025 13.4667 1.99877 15.0277 3.42397C16.5887 4.84916 17.5402 6.8213 17.6842 8.93013C17.8281 11.039 17.1536 13.1221 15.8008 14.7463ZM2.70334 9.5V9.50005C2.70534 11.3021 3.42207 13.0297 4.69629 14.3039C5.97051 15.5781 7.69815 16.2949 9.50016 16.2969H9.50021C10.8445 16.2969 12.1586 15.8982 13.2764 15.1514C14.3941 14.4045 15.2653 13.343 15.7797 12.1011C16.2941 10.8591 16.4288 9.49246 16.1665 8.174C15.9042 6.85553 15.2569 5.64444 14.3063 4.69388C13.3558 3.74332 12.1447 3.09598 10.8262 2.83373C9.50775 2.57147 8.14113 2.70607 6.89916 3.22051C5.6572 3.73495 4.59567 4.60612 3.84882 5.72386C3.10197 6.8416 2.70334 8.15571 2.70334 9.5Z" fill="black" fill-opacity="0.9" stroke="#1D1D1D" stroke-width="0.09375"/>
</svg>
